<svg width="383" height="132" viewBox="0 0 383 132" fill="none" xmlns="http://www.w3.org/2000/svg">
<g clip-path="url(#clip0_1_2)">
<path d="M383 0H0V132H383V0Z" fill="white"/>
<mask id="mask0_1_2" style="mask-type:luminance" maskUnits="userSpaceOnUse" x="83" y="47" width="274" height="43">
<path d="M357 47H83V90H357V47Z" fill="white"/>
</mask>
<g mask="url(#mask0_1_2)">
<path d="M83.8249 81.6474V55.3526C83.8249 49.7046 86.6117 47 92.2876 47H108.676C114.318 47 116.9 49.7046 116.9 55.3526V63.4065H105.361V57.6903C105.361 56.8371 105.114 56.5812 104.253 56.5812H96.4635C95.6113 56.5812 95.3556 56.8286 95.3556 57.6903V79.3183C95.3556 80.1714 95.6028 80.4188 96.4635 80.4188H104.253C105.105 80.4188 105.361 80.1714 105.361 79.3183V73.602H116.9V81.6474C116.9 87.304 114.199 90 108.557 90H92.1683C86.5265 90 83.8249 87.304 83.8249 81.6474Z" fill="white"/>
<path d="M145.305 81.127H132.632L130.399 90H118.613L131.559 47H146.779L159.853 90H147.581L145.305 81.127ZM142.978 71.9042L138.99 56.3849L135.002 71.9212L142.978 71.9042Z" fill="white"/>
<path d="M163.713 47H175.244V80.1714H192.374V90H163.713V47Z" fill="white"/>
<path d="M220.472 81.127H207.833L205.567 90H193.78L206.726 47H221.946L235.02 90H222.748L220.472 81.127ZM218.145 71.9042L214.157 56.3849L210.186 71.9383L218.145 71.9042Z" fill="white"/>
<path d="M238.88 47H264.447C270.098 47 272.799 49.7046 272.799 55.3526V81.6474C272.799 87.304 270.098 90 264.447 90H238.88V47ZM260.11 80.4188C260.962 80.4188 261.217 80.1714 261.217 79.3183V57.6903C261.217 56.8371 260.97 56.5812 260.11 56.5812H250.42V80.4188H260.11Z" fill="white"/>
<path d="M301.903 81.127H289.256L286.989 90H275.203L288.157 47H303.369L316.442 90H304.17L301.903 81.127ZM299.568 71.9042L295.579 56.3849L291.591 71.9212L299.568 71.9042Z" fill="white"/>
<path d="M320.303 47H331.782L345.836 69.8565V47H357V90H346.773L331.476 65.3688V90H320.303V47Z" fill="white"/>
</g>
<path d="M69.7551 62.7959H25V74.2041H69.7551V62.7959Z" fill="white"/>
<path d="M69.7551 47H25V58.4082H69.7551V47Z" fill="white"/>
<path d="M69.7551 78.5918H25V90H69.7551V78.5918Z" fill="white"/>
</g>
<defs>
<clipPath id="clip0_1_2">
<rect width="383" height="132" fill="white"/>
</clipPath>
</defs>
</svg>
