<svg xmlns="http://www.w3.org/2000/svg" viewBox="0 0 367.27 50.4"><defs><style>.cls-1{fill:#231f20;}</style></defs><g id="Layer_2" data-name="Layer 2"><g id="Logos"><path class="cls-1" d="M46.73,40.61V9.79C46.73,3.17,50,0,56.66,0H75.89c6.62,0,9.65,3.17,9.65,9.79v9.44H72v-6.7c0-1-.29-1.3-1.3-1.3H61.56c-1,0-1.3.29-1.3,1.3V37.88c0,1,.29,1.29,1.3,1.29H70.7c1,0,1.3-.29,1.3-1.29v-6.7H85.54v9.43c0,6.63-3.17,9.79-9.79,9.79H56.52C49.9,50.4,46.73,47.24,46.73,40.61Z"/><path class="cls-1" d="M118.87,40H104L101.38,50.4H87.55L102.74,0H120.6l15.34,50.4h-14.4Zm-2.73-10.81L111.46,11l-4.68,18.21Z"/><path class="cls-1" d="M140.47,0H154V38.88H174.1V50.4H140.47Z"/><path class="cls-1" d="M207.07,40H192.24L189.58,50.4H175.75L190.94,0H208.8l15.34,50.4h-14.4Zm-2.73-10.81L199.66,11,195,29.23Z"/><path class="cls-1" d="M228.67,0h30c6.63,0,9.8,3.17,9.8,9.79V40.61c0,6.63-3.17,9.79-9.8,9.79h-30Zm24.91,39.17c1,0,1.3-.29,1.3-1.29V12.53c0-1-.29-1.3-1.3-1.3H242.21V39.17Z"/><path class="cls-1" d="M302.62,40H287.78L285.12,50.4H271.29L286.49,0h17.85l15.34,50.4h-14.4Zm-2.74-10.81L295.2,11l-4.68,18.21Z"/><path class="cls-1" d="M324.21,0h13.47l16.49,26.79V0h13.1V50.4h-12L337.32,21.53V50.4H324.21Z"/><rect class="cls-1" y="1.2" width="34.19" height="14.81"/><rect class="cls-1" y="18.3" width="34.19" height="14.81"/><rect class="cls-1" y="35.39" width="34.19" height="14.81"/></g></g></svg>